<svg width="20" height="20" viewBox="0 0 20 20" fill="none" xmlns="http://www.w3.org/2000/svg">
<path d="M8.5898 11.4104L12.6283 7.37191M16.7594 4.90731L13.3505 15.9861C13.045 16.979 12.8922 17.4757 12.6287 17.6403C12.4002 17.7831 12.1172 17.807 11.8683 17.7037C11.5813 17.5846 11.3483 17.1195 10.8836 16.1901L8.72448 11.8718C8.65074 11.7243 8.61383 11.6509 8.56457 11.587C8.52086 11.5303 8.47041 11.4792 8.41371 11.4355C8.35125 11.3873 8.27905 11.3512 8.13814 11.2808L3.80993 9.1167C2.88051 8.65199 2.41576 8.41942 2.29667 8.13241C2.19339 7.8835 2.21694 7.60027 2.35974 7.37173C2.52439 7.1082 3.02102 6.9551 4.0142 6.64951L15.093 3.24064C15.8738 3.0004 16.2644 2.88037 16.5281 2.97719C16.7578 3.06152 16.9389 3.24245 17.0233 3.47217C17.12 3.73577 16.9999 4.12614 16.7599 4.90616L16.7594 4.90731Z" stroke="#6A788E" stroke-width="1.5" stroke-linecap="round" stroke-linejoin="round"/>
</svg>
