<svg width="25" height="25" viewBox="0 0 25 25" fill="none" xmlns="http://www.w3.org/2000/svg">
<path d="M4.5 8.5H20.5M4.5 8.5V17.3002C4.5 18.4203 4.5 18.9801 4.71799 19.4079C4.90973 19.7842 5.21547 20.0905 5.5918 20.2822C6.0192 20.5 6.57899 20.5 7.69691 20.5H17.3031C18.421 20.5 18.98 20.5 19.4074 20.2822C19.7837 20.0905 20.0905 19.7842 20.2822 19.4079C20.5 18.9805 20.5 18.4215 20.5 17.3036V8.5M4.5 8.5V7.7002C4.5 6.58009 4.5 6.01962 4.71799 5.5918C4.90973 5.21547 5.21547 4.90973 5.5918 4.71799C6.01962 4.5 6.58009 4.5 7.7002 4.5H8.5M20.5 8.5V7.69691C20.5 6.57899 20.5 6.0192 20.2822 5.5918C20.0905 5.21547 19.7837 4.90973 19.4074 4.71799C18.9796 4.5 18.4203 4.5 17.3002 4.5H16.5M16.5 2.5V4.5M16.5 4.5H8.5M8.5 2.5V4.5" stroke="#6A788E" stroke-width="2" stroke-linecap="round" stroke-linejoin="round"/>
</svg>
