<svg width="37" height="36" viewBox="0 0 37 36" fill="none" xmlns="http://www.w3.org/2000/svg">
<rect x="0.75" y="0.5" width="35" height="35" rx="5.5" fill="white"/>
<rect x="0.75" y="0.5" width="35" height="35" rx="5.5" stroke="#DFDFDF"/>
<path d="M22.4167 24.6667C22.4167 23.286 20.5512 22.1667 18.25 22.1667C15.9488 22.1667 14.0833 23.286 14.0833 24.6667M25.75 22.1671C25.75 21.1419 24.7216 20.2609 23.25 19.8751M10.75 22.1671C10.75 21.1419 11.7784 20.2609 13.25 19.8751M23.25 16.5302C23.7615 16.0724 24.0833 15.4072 24.0833 14.6667C24.0833 13.286 22.964 12.1667 21.5833 12.1667C20.943 12.1667 20.359 12.4075 19.9167 12.8033M13.25 16.5302C12.7385 16.0724 12.4167 15.4072 12.4167 14.6667C12.4167 13.286 13.536 12.1667 14.9167 12.1667C15.557 12.1667 16.141 12.4075 16.5833 12.8033M18.25 19.6667C16.8693 19.6667 15.75 18.5475 15.75 17.1667C15.75 15.786 16.8693 14.6667 18.25 14.6667C19.6307 14.6667 20.75 15.786 20.75 17.1667C20.75 18.5475 19.6307 19.6667 18.25 19.6667Z" stroke="#6A788E" stroke-width="1.5" stroke-linecap="round" stroke-linejoin="round"/>
</svg>
