<svg width="21" height="20" viewBox="0 0 21 20" fill="none" xmlns="http://www.w3.org/2000/svg">
<path d="M14.4167 16.6667C14.4167 15.286 12.5512 14.1667 10.25 14.1667C7.94881 14.1667 6.08333 15.286 6.08333 16.6667M17.75 14.1671C17.75 13.1419 16.7216 12.2609 15.25 11.8751M2.75 14.1671C2.75 13.1419 3.77841 12.2609 5.25 11.8751M15.25 8.53017C15.7615 8.0724 16.0833 7.40716 16.0833 6.66675C16.0833 5.28604 14.964 4.16675 13.5833 4.16675C12.943 4.16675 12.359 4.40746 11.9167 4.80333M5.25 8.53017C4.73854 8.0724 4.41667 7.40716 4.41667 6.66675C4.41667 5.28604 5.53595 4.16675 6.91667 4.16675C7.55696 4.16675 8.14104 4.40746 8.58333 4.80333M10.25 11.6667C8.86929 11.6667 7.75 10.5475 7.75 9.16675C7.75 7.78604 8.86929 6.66675 10.25 6.66675C11.6307 6.66675 12.75 7.78604 12.75 9.16675C12.75 10.5475 11.6307 11.6667 10.25 11.6667Z" stroke="#6A788E" stroke-width="1.5" stroke-linecap="round" stroke-linejoin="round"/>
</svg>
