<svg width="20" height="21" viewBox="0 0 20 21" fill="none" xmlns="http://www.w3.org/2000/svg">
<path d="M4.16667 8.76904C4.16667 12.8122 7.70373 16.1558 9.26933 17.4377C9.49339 17.6211 9.60677 17.714 9.77393 17.761C9.90409 17.7977 10.0957 17.7977 10.2258 17.761C10.3933 17.7139 10.5059 17.622 10.7308 17.4378C12.2964 16.1559 15.8333 12.8126 15.8333 8.76941C15.8333 7.23932 15.2187 5.77171 14.1248 4.68977C13.0308 3.60783 11.5472 3 10.0001 3C8.45298 3 6.96918 3.60792 5.87522 4.68986C4.78125 5.7718 4.16667 7.23895 4.16667 8.76904Z" stroke="#6A788E" stroke-width="1.5" stroke-linecap="round" stroke-linejoin="round"/>
<path d="M8.33334 8C8.33334 8.92047 9.07953 9.66667 10 9.66667C10.9205 9.66667 11.6667 8.92047 11.6667 8C11.6667 7.07953 10.9205 6.33333 10 6.33333C9.07953 6.33333 8.33334 7.07953 8.33334 8Z" stroke="#6A788E" stroke-width="1.5" stroke-linecap="round" stroke-linejoin="round"/>
</svg>
