<svg width="21" height="20" viewBox="0 0 21 20" fill="none" xmlns="http://www.w3.org/2000/svg">
<path d="M10.5 12.4999L13 9.99992M13 9.99992L10.5 7.49992M13 9.99992H3.83333M3.83333 6.03994V6.00008C3.83333 5.06666 3.83333 4.5996 4.01498 4.24308C4.17477 3.92948 4.42956 3.6747 4.74316 3.51491C5.09968 3.33325 5.56674 3.33325 6.50016 3.33325H14.5002C15.4336 3.33325 15.8996 3.33325 16.2562 3.51491C16.5698 3.6747 16.8254 3.92948 16.9852 4.24308C17.1667 4.59925 17.1667 5.06575 17.1667 5.99734V14.0029C17.1667 14.9345 17.1667 15.4003 16.9852 15.7565C16.8254 16.0701 16.5698 16.3253 16.2562 16.4851C15.9 16.6666 15.4342 16.6666 14.5026 16.6666H6.49742C5.56582 16.6666 5.09933 16.6666 4.74316 16.4851C4.42956 16.3253 4.17477 16.0698 4.01498 15.7562C3.83333 15.3997 3.83333 14.9333 3.83333 13.9999V13.9583" stroke="#6A788E" stroke-width="1.5" stroke-linecap="round" stroke-linejoin="round"/>
</svg>
