<svg width="37" height="36" viewBox="0 0 37 36" fill="none" xmlns="http://www.w3.org/2000/svg">
<path d="M1 6C1 2.96243 3.46243 0.5 6.5 0.5H30.5C33.5376 0.5 36 2.96243 36 6V30C36 33.0376 33.5376 35.5 30.5 35.5H6.5C3.46243 35.5 1 33.0376 1 30V6Z" fill="white"/>
<path d="M1 6C1 2.96243 3.46243 0.5 6.5 0.5H30.5C33.5376 0.5 36 2.96243 36 6V30C36 33.0376 33.5376 35.5 30.5 35.5H6.5C3.46243 35.5 1 33.0376 1 30V6Z" stroke="#DFDFDF"/>
<path d="M18.5 20.4999L21 17.9999M21 17.9999L18.5 15.4999M21 17.9999H11.8333M11.8333 14.0399V14.0001C11.8333 13.0667 11.8333 12.5996 12.015 12.2431C12.1748 11.9295 12.4296 11.6747 12.7432 11.5149C13.0997 11.3333 13.5667 11.3333 14.5002 11.3333H22.5002C23.4336 11.3333 23.8996 11.3333 24.2562 11.5149C24.5698 11.6747 24.8254 11.9295 24.9852 12.2431C25.1667 12.5993 25.1667 13.0657 25.1667 13.9973V22.0029C25.1667 22.9345 25.1667 23.4003 24.9852 23.7565C24.8254 24.0701 24.5698 24.3253 24.2562 24.4851C23.9 24.6666 23.4342 24.6666 22.5026 24.6666H14.4974C13.5658 24.6666 13.0993 24.6666 12.7432 24.4851C12.4296 24.3253 12.1748 24.0698 12.015 23.7562C11.8333 23.3997 11.8333 22.9333 11.8333 21.9999V21.9583" stroke="#6A788E" stroke-width="1.5" stroke-linecap="round" stroke-linejoin="round"/>
</svg>
