<svg width="24" height="25" viewBox="0 0 24 25" fill="none" xmlns="http://www.w3.org/2000/svg">
<path d="M21 20.4999C21 18.7583 19.3304 17.2767 17 16.7275M15 20.5C15 18.2909 12.3137 16.5 9 16.5C5.68629 16.5 3 18.2909 3 20.5M15 13.5C17.2091 13.5 19 11.7091 19 9.5C19 7.29086 17.2091 5.5 15 5.5M9 13.5C6.79086 13.5 5 11.7091 5 9.5C5 7.29086 6.79086 5.5 9 5.5C11.2091 5.5 13 7.29086 13 9.5C13 11.7091 11.2091 13.5 9 13.5Z" stroke="#6A788E" stroke-width="2" stroke-linecap="round" stroke-linejoin="round"/>
</svg>
