<svg width="20" height="21" viewBox="0 0 20 21" fill="none" xmlns="http://www.w3.org/2000/svg">
<path d="M8.5898 11.9104L12.6283 7.87191M16.7594 5.40731L13.3505 16.4861C13.045 17.479 12.8922 17.9757 12.6287 18.1403C12.4002 18.2831 12.1172 18.307 11.8683 18.2037C11.5813 18.0846 11.3483 17.6195 10.8836 16.6901L8.72448 12.3718C8.65074 12.2243 8.61383 12.1509 8.56457 12.087C8.52086 12.0303 8.47041 11.9792 8.41371 11.9355C8.35125 11.8873 8.27905 11.8512 8.13814 11.7808L3.80993 9.6167C2.88051 9.15199 2.41576 8.91942 2.29667 8.63241C2.19339 8.3835 2.21694 8.10027 2.35974 7.87173C2.52439 7.6082 3.02102 7.4551 4.0142 7.14951L15.093 3.74064C15.8738 3.5004 16.2644 3.38037 16.5281 3.47719C16.7578 3.56152 16.9389 3.74245 17.0233 3.97217C17.12 4.23577 16.9999 4.62614 16.7599 5.40616L16.7594 5.40731Z" stroke="#6A788E" stroke-width="1.5" stroke-linecap="round" stroke-linejoin="round"/>
</svg>
