<svg width="21" height="20" viewBox="0 0 21 20" fill="none" xmlns="http://www.w3.org/2000/svg">
<path d="M13.25 8.33317L9.91663 11.6665L8.24996 9.99984M11.7884 2.88233L12.8058 3.74941C13.0622 3.96786 13.3805 4.09992 13.7162 4.12671L15.0487 4.23291C15.8322 4.29543 16.4545 4.91733 16.517 5.70077L16.6229 7.03353C16.6497 7.36925 16.7822 7.68799 17.0007 7.94433L17.8674 8.96152C18.3772 9.5597 18.3772 10.4396 17.8675 11.0378L17.0008 12.0551C16.7823 12.3115 16.65 12.6303 16.6232 12.9661L16.5166 14.2986C16.454 15.082 15.8327 15.7043 15.0493 15.7669L13.7163 15.8732C13.3805 15.9 13.062 16.0317 12.8056 16.2502L11.7884 17.1173C11.1902 17.627 10.3097 17.6271 9.71155 17.1174L8.6943 16.2502C8.43796 16.0318 8.11938 15.8998 7.78365 15.8731L6.45064 15.7668C5.6672 15.7043 5.04588 15.0822 4.98336 14.2988L4.87675 12.9661C4.84996 12.6304 4.71759 12.3118 4.49915 12.0555L3.63245 11.0378C3.12268 10.4397 3.12244 9.56002 3.63221 8.96184L4.49969 7.94418C4.71814 7.68784 4.84923 7.36926 4.87602 7.03353L4.98263 5.70093C5.04515 4.91749 5.66826 4.29535 6.45171 4.23283L7.78324 4.12663C8.11897 4.09984 8.4377 3.96788 8.69404 3.74943L9.71163 2.88233C10.3098 2.37256 11.1902 2.37256 11.7884 2.88233Z" stroke="#6A788E" stroke-width="1.5" stroke-linecap="round" stroke-linejoin="round"/>
</svg>
